<svg width="24" height="24" viewBox="0 0 24 24" fill="none" xmlns="http://www.w3.org/2000/svg">
<path d="M22.1616 8.04588L22.313 7.9041L22.3196 7.69678L22.4997 2.01585L22.5166 1.4831L21.9839 1.50026L16.3468 1.68184L16.1374 1.68859L15.9954 1.84263L6.52303 12.115L6.19879 12.4666L6.53568 12.8061L8.54341 14.8295L8.89833 15.1872L9.25325 14.8295L14.0862 9.95895L14.107 9.95195L14.0976 9.98034L9.26413 14.8515L8.91467 15.2036L9.26413 15.5558L11.2718 17.5792L11.614 17.924L11.9686 17.5919L22.1616 8.04588ZM12.1876 18.6906L5.28928 11.7386C4.73335 11.1784 3.84837 11.1784 3.29244 11.7386L2.77764 12.2574C2.22384 12.8155 2.22384 13.7007 2.77764 14.2588L4.87348 16.3709L1.95396 19.3132C1.34868 19.9232 1.34868 20.938 1.95396 21.548L2.44302 22.0409C3.05043 22.653 4.06411 22.653 4.67152 22.0409L7.55984 19.1301L9.65023 21.2367C10.2062 21.797 11.0911 21.797 11.6471 21.2367L12.1619 20.7179C12.7324 20.143 12.7503 19.2577 12.1876 18.6906Z" fill="#FE2A49" stroke="#292929"/>
</svg>
