<svg width="24" height="24" viewBox="0 0 24 24" fill="none" xmlns="http://www.w3.org/2000/svg">
<path d="M6.28045 18.5534L6.28088 18.5539C7.84278 20.4085 9.68473 22.4999 12.5 22.4999C15.3032 22.4999 17.0314 20.5109 18.5856 18.7222L18.6008 18.7047L18.6008 18.7047L18.6033 18.7017C20.4666 16.5232 21.5 13.712 21.5 10.8115V2.75356C21.5 2.0952 20.9875 1.49994 20.2633 1.49994H4.73667C4.0532 1.49994 3.5 2.08241 3.5 2.75356V10.8405C3.5 13.6504 4.47429 16.4028 6.28045 18.5534ZM17.9353 11.3405C17.8267 13.1897 17.1187 14.9614 15.9196 16.3382L15.9196 16.3382L15.9167 16.3416C15.1204 17.2726 14.5286 17.9145 13.9885 18.3273C13.4676 18.7254 13.019 18.8912 12.5 18.8912C12.0033 18.8912 11.5414 18.7171 10.9893 18.2894C10.4228 17.8506 9.79408 17.1706 8.97169 16.1987L8.97127 16.1982C7.74738 14.7556 7.05 12.8423 7.05 10.8405V5.30429C7.05 5.24377 7.0716 5.20336 7.09526 5.17916C7.1185 5.15538 7.15271 5.13762 7.20166 5.13762H17.77C17.8044 5.13762 17.8397 5.15147 17.8712 5.18465C17.9048 5.22002 17.9217 5.26526 17.9217 5.30429V10.8405V11.3405H17.9353ZM16.41 5.84776H15.91V5.87675H8.59C8.16022 5.87675 7.75 6.22945 7.75 6.72458V10.8115C7.75 12.6333 8.35439 14.343 9.48236 15.6841L9.48234 15.6841L9.48543 15.6877C10.196 16.5164 10.7481 17.1065 11.1969 17.4917C11.6285 17.8621 12.053 18.1231 12.5 18.1231C12.9452 18.1231 13.3352 17.91 13.7562 17.5504C14.1752 17.1925 14.6937 16.6288 15.4005 15.8045C16.5847 14.4372 17.25 12.6399 17.25 10.8115V6.69559C17.25 6.2839 16.9213 5.84776 16.41 5.84776Z" fill="white" stroke="#292929"/>
</svg>
