<svg width="24" height="24" viewBox="0 0 24 24" fill="none" xmlns="http://www.w3.org/2000/svg">
<path d="M6.55161 7.58485L6.55161 7.58485L6.54975 7.58687C5.02492 9.24793 3.50167 11.461 3.50051 14.022C3.45358 18.1809 6.64183 21.9561 10.7802 22.4423C15.7317 23.024 19.9545 19.1451 19.9545 14.298C19.9545 11.5191 18.8906 9.3516 16.8697 7.97083C16.4107 7.64214 15.8743 7.73389 15.5289 8.02802C15.1869 8.31934 15.0079 8.82401 15.2042 9.3338L15.2083 9.34437L15.2128 9.35474C15.5296 10.0778 15.7634 10.8142 15.7634 11.2936C15.7634 12.8872 14.3205 14.1145 12.6622 13.8064L12.6618 13.8064C11.6342 13.6163 10.9733 12.9559 10.7831 11.9308L10.7829 11.9297C10.6708 11.3326 10.7766 10.5417 11.2276 9.72003C11.7023 8.91229 12.263 7.60697 12.5037 6.74555C12.8905 5.48673 12.9806 4.19428 12.8878 2.52567L12.8878 2.52567L12.8876 2.52221C12.871 2.25806 12.7887 2.0114 12.6224 1.81968C12.4532 1.62469 12.2264 1.5213 11.9948 1.50304C11.5484 1.46785 11.1246 1.7412 10.932 2.16095C9.93058 4.2892 9.01438 5.16719 7.88872 6.24592C7.47602 6.64141 7.03515 7.06389 6.55161 7.58485Z" fill="#83A9F1" stroke="#292929"/>
</svg>
